<?xml version="1.0" encoding="UTF-8"?>
<svg width="512px" height="512px" viewBox="0 0 512 512" version="1.1" xmlns="http://www.w3.org/2000/svg" xmlns:xlink="http://www.w3.org/1999/xlink">
    <title>dwex</title>
    <g id="dwex" stroke="none" stroke-width="1" fill="none" fill-rule="evenodd">
        <rect id="Rectangle" fill="#EEEEEE" x="0" y="0" width="512" height="512" rx="140"></rect>
        <g id="Group" transform="translate(89, 96.1753)">
            <path d="M138.824897,32.5562602 L165.831578,6.8149946 C167.283264,5.43132887 169.562962,5.42257392 171.025232,6.7950489 L232.120806,64.1388659 C233.123619,65.080098 233.535912,66.4918216 233.197287,67.8248199 L169.820777,317.306512 C169.306897,319.3294 167.25044,320.552693 165.227552,320.038814 C164.739002,319.914706 164.280218,319.694116 163.878205,319.390029 L145.826591,305.735579 C144.90867,305.041253 144.35719,303.966467 144.328476,302.815884 L137.654344,35.3860908 C137.627736,34.319899 138.052881,33.2921028 138.824897,32.5562602 Z" id="Path-9" fill="#D84040"></path>
            <path d="M118.105415,264.136323 L91.7487909,84.9480204 C91.4450637,82.883099 89.5248947,81.455369 87.4599733,81.7590962 C86.6652683,81.8759885 85.9284804,82.243059 85.3565192,82.807045 L7.19032135,159.883322 C5.70416617,161.348755 5.68736734,163.74149 7.15280012,165.227645 C7.16932833,165.244407 7.18601278,165.261014 7.20285132,165.277464 L111.725673,267.38949 C113.21862,268.848003 115.611251,268.820088 117.069764,267.327141 C117.89401,266.483435 118.277059,265.303268 118.105415,264.136323 Z" id="Path-10" fill="#D84040"></path>
            <path d="M207.360992,275.297049 L268.789239,107.381937 C269.5063,105.421841 271.676563,104.414162 273.636659,105.131222 C274.160627,105.322904 274.635652,105.628227 275.027627,106.025265 L328.22294,159.907744 C329.685296,161.388991 329.674562,163.773869 328.198932,165.241892 L213.575372,279.274526 C212.095733,280.746537 209.702947,280.740353 208.230935,279.260714 C207.196022,278.220437 206.856855,276.675116 207.360992,275.297049 Z" id="Path-11" fill="#D84040"></path>
            <path d="M172.198609,9.82027935 C162.940854,107.149272 153.683099,204.478264 144.425344,301.807256 C142.168881,212.680106 139.912417,123.552955 137.655954,34.4258044 C137.628377,33.3365615 138.072279,32.2884208 138.873769,31.550299 L165.876415,6.68257421 C167.411689,5.26868433 169.802459,5.3670855 171.216349,6.90235937 C171.943089,7.69149115 172.300192,8.75230871 172.198609,9.82027935 Z" id="Path-12" fill="#1D1616"></path>
            <path d="M10.1841544,158.823376 L60.3258039,162.025684 C65.7559717,162.372483 70.5807621,165.610921 72.9587477,170.505017 L117.866064,262.92808 C118.778208,264.80535 117.995819,267.066618 116.118549,267.978762 C114.685001,268.675306 112.968553,268.397594 111.82779,267.284539 L7.30411645,165.299668 C5.81025522,163.842092 5.78084059,161.449479 7.23841703,159.955617 C8.0082128,159.166658 9.08410621,158.753122 10.1841544,158.823376 Z" id="Path-13" fill="#1D1616"></path>
            <path d="M268.525194,108.896328 L269.948163,156.856303 C270.066382,160.840778 273.258725,164.048498 277.242586,164.185862 L325.422775,165.847118 C327.508674,165.91904 329.257934,164.286388 329.329856,162.200488 C329.365937,161.154056 328.966253,160.139556 328.226122,159.398929 L274.975752,106.112919 C273.500416,104.636595 271.107622,104.635795 269.631298,106.111131 C268.894516,106.847421 268.494302,107.855167 268.525194,108.896328 Z" id="Path-14" fill="#1D1616"></path>
        </g>
    </g>
</svg>